<svg width="254.53620605468748px" height="83.62248535156249px" xmlns="http://www.w3.org/2000/svg" viewBox="122.73189697265626 33.188757324218756 254.53620605468748 83.62248535156249" style="background: rgba(0, 0, 0, 0);" preserveAspectRatio="xMidYMid"><defs><filter id="editing-hole" x="-100%" y="-100%" width="300%" height="300%"><feFlood flood-color="#000000" result="black"></feFlood><feMorphology operator="dilate" radius="2" in="SourceGraphic" result="erode"></feMorphology><feGaussianBlur in="erode" stdDeviation="4" result="blur"></feGaussianBlur><feOffset in="blur" dx="2" dy="2" result="offset"></feOffset><feComposite operator="atop" in="offset" in2="black" result="merge"></feComposite><feComposite operator="in" in="merge" in2="SourceGraphic" result="inner-shadow"></feComposite></filter></defs><g filter="url(#editing-hole)"><g transform="translate(161.95718622207642, 89.13500022888184)"><path d="M3.67-6.94L3.67-6.94Q3.78-5.62 4.66-4.41L4.66-4.41L4.66-4.41Q5.54-3.20 7.08-2.44L7.08-2.44L7.08-2.44Q8.62-1.68 10.61-1.68L10.61-1.68L10.61-1.68Q13.61-1.68 15.62-3.02L15.62-3.02L15.62-3.02Q17.63-4.37 17.63-7.29L17.63-7.29L17.63-7.29Q17.63-9.01 16.65-10.16L16.65-10.16L16.65-10.16Q15.68-11.31 14.23-11.99L14.23-11.99L14.23-11.99Q12.79-12.68 10.30-13.57L10.30-13.57L10.30-13.57Q7.61-14.51 5.99-15.31L5.99-15.31L5.99-15.31Q4.37-16.11 3.26-17.47L3.26-17.47L3.26-17.47Q2.15-18.84 2.15-20.98L2.15-20.98L2.15-20.98Q2.15-22.70 3.12-24.24L3.12-24.24L3.12-24.24Q4.09-25.78 6.06-26.73L6.06-26.73L6.06-26.73Q8.03-27.69 10.92-27.69L10.92-27.69L10.92-27.69Q12.83-27.69 14.08-27.42L14.08-27.42L14.08-27.42Q15.33-27.14 16.61-26.52L16.61-26.52L15.95-24.45L15.95-24.45Q13.73-25.58 11.00-25.58L11.00-25.58L11.00-25.58Q8.00-25.58 6.20-24.34L6.20-24.34L6.20-24.34Q4.41-23.09 4.41-20.86L4.41-20.86L4.41-20.86Q4.41-19.46 5.30-18.51L5.30-18.51L5.30-18.51Q6.20-17.55 7.51-16.96L7.51-16.96L7.51-16.96Q8.81-16.38 11.15-15.56L11.15-15.56L11.15-15.56Q14.00-14.59 15.76-13.75L15.76-13.75L15.76-13.75Q17.51-12.91 18.74-11.37L18.74-11.37L18.74-11.37Q19.97-9.83 19.97-7.49L19.97-7.49L19.97-7.49Q19.97-3.90 17.69-1.74L17.69-1.74L17.69-1.74Q15.40 0.43 10.65 0.43L10.65 0.43L10.65 0.43Q7.76 0.43 5.71-0.64L5.71-0.64L5.71-0.64Q3.67-1.72 2.59-3.41L2.59-3.41L2.59-3.41Q1.52-5.11 1.44-6.94L1.44-6.94L3.67-6.94ZM36.31-1.36L36.31-1.36Q34.91-0.47 33.11 0L33.11 0L33.11 0Q31.32 0.47 29.52 0.47L29.52 0.47L29.52 0.47Q26.64 0.47 24.94-0.96L24.94-0.96L24.94-0.96Q23.24-2.38 23.24-5.23L23.24-5.23L23.24-13.22L23.24-13.22Q23.24-16.38 25.21-18.14L25.21-18.14L25.21-18.14Q27.18-19.89 30.42-19.89L30.42-19.89L30.42-19.89Q33.66-19.89 35.47-18.15L35.47-18.15L35.47-18.15Q37.28-16.42 37.28-13.34L37.28-13.34L37.28-8.27L25.43-7.61L25.43-5.23L25.43-5.23Q25.43-3.35 26.64-2.42L26.64-2.42L26.64-2.42Q27.85-1.48 29.80-1.48L29.80-1.48L29.80-1.48Q32.53-1.48 35.45-3.04L35.45-3.04L36.31-1.36ZM35.10-13.61L35.10-13.61Q35.10-16.03 33.58-17.02L33.58-17.02L33.58-17.02Q32.06-18.02 30.38-18.02L30.38-18.02L30.38-18.02Q28.24-18.02 26.83-16.85L26.83-16.85L26.83-16.85Q25.43-15.68 25.43-13.18L25.43-13.18L25.43-9.75L35.10-10.22L35.10-13.61ZM56.24-6.12L56.24-6.12Q56.24-4.13 55.42-2.77L55.42-2.77L55.42-2.77Q54.60-1.40 53.20-0.70L53.20-0.70L53.20-0.70Q51.95-0.08 50.68 0.20L50.68 0.20L50.68 0.20Q49.41 0.47 47.97 0.47L47.97 0.47L47.97 0.47Q46.53 0.47 43.99 0.20L43.99 0.20L41.85 0L41.85-27.30L44.03-27.30L44.03-18.49L44.03-18.49Q44.97-19.15 46.31-19.50L46.31-19.50L46.31-19.50Q47.66-19.85 49.10-19.85L49.10-19.85L49.10-19.85Q51.32-19.85 52.92-19.11L52.92-19.11L52.92-19.11Q56.24-17.59 56.24-13.49L56.24-13.49L56.24-6.12ZM54.09-13.38L54.09-13.38Q54.09-15.76 52.71-16.83L52.71-16.83L52.71-16.83Q51.32-17.90 49.14-17.90L49.14-17.90L49.14-17.90Q47.81-17.90 46.45-17.53L46.45-17.53L46.45-17.53Q45.08-17.16 44.03-16.57L44.03-16.57L44.03-1.87L44.03-1.87Q46.33-1.52 47.81-1.52L47.81-1.52L47.81-1.52Q54.09-1.52 54.09-6.08L54.09-6.08L54.09-13.38ZM73.98 0L73.98 0Q69.77 0.43 67.90 0.43L67.90 0.43L67.90 0.43Q63.80 0.43 61.39-1.09L61.39-1.09L61.39-1.09Q58.97-2.61 58.97-6.59L58.97-6.59L58.97-9.83L58.97-9.83Q58.97-13.69 61.66-15.02L61.66-15.02L61.66-15.02Q62.95-15.68 64.94-15.68L64.94-15.68L64.94-15.68Q66.77-15.68 68.64-15.07L68.64-15.07L68.64-15.07Q70.51-14.47 71.80-13.49L71.80-13.49L71.80-13.49Q71.80-15.64 70.55-16.91L70.55-16.91L70.55-16.91Q69.30-18.17 65.75-18.17L65.75-18.17L65.87-19.85L65.87-19.85Q69.61-19.85 71.39-18.66L71.39-18.66L71.39-18.66Q73.16-17.47 73.57-15.83L73.57-15.83L73.57-15.83Q73.98-14.20 73.98-11.62L73.98-11.62L73.98 0ZM71.80-11.82L71.80-11.82Q70.20-12.56 68.39-13.10L68.39-13.10L68.39-13.10Q66.57-13.65 65.05-13.65L65.05-13.65L65.05-13.65Q61.11-13.65 61.11-9.71L61.11-9.71L61.11-6.32L61.11-6.32Q61.11-3.78 62.87-2.63L62.87-2.63L62.87-2.63Q64.62-1.48 67.86-1.48L67.86-1.48L67.86-1.48Q69.54-1.48 71.80-1.79L71.80-1.79L71.80-11.82ZM78.86-4.95L78.86-4.95Q79.09-3.20 80.61-2.32L80.61-2.32L80.61-2.32Q82.13-1.44 84.01-1.44L84.01-1.44L84.01-1.44Q85.76-1.44 87.20-2.24L87.20-2.24L87.20-2.24Q88.65-3.04 88.65-4.84L88.65-4.84L88.65-4.84Q88.65-6.01 87.96-6.77L87.96-6.77L87.96-6.77Q87.28-7.53 86.27-8.00L86.27-8.00L86.27-8.00Q85.25-8.46 83.54-9.01L83.54-9.01L83.54-9.01Q81.63-9.63 80.42-10.18L80.42-10.18L80.42-10.18Q79.21-10.72 78.31-11.72L78.31-11.72L78.31-11.72Q77.42-12.71 77.26-14.23L77.26-14.23L77.22-14.70L77.22-14.70Q77.22-15.99 77.94-17.22L77.94-17.22L77.94-17.22Q78.66-18.45 80.16-19.23L80.16-19.23L80.16-19.23Q81.67-20.01 83.93-20.01L83.93-20.01L83.93-20.01Q85.18-20.01 86.13-19.75L86.13-19.75L86.13-19.75Q87.09-19.50 87.63-19.23L87.63-19.23L87.63-19.23Q88.18-18.95 88.30-18.88L88.30-18.88L87.56-17.08L87.56-17.08Q87.44-17.16 86.99-17.39L86.99-17.39L86.99-17.39Q86.54-17.63 85.72-17.86L85.72-17.86L85.72-17.86Q84.90-18.10 83.93-18.10L83.93-18.10L83.93-18.10Q82.06-18.10 80.73-17.22L80.73-17.22L80.73-17.22Q79.40-16.34 79.40-14.78L79.40-14.78L79.40-14.78Q79.40-13.30 80.61-12.52L80.61-12.52L80.61-12.52Q81.82-11.74 84.32-10.96L84.32-10.96L84.32-10.96Q86.42-10.26 87.71-9.63L87.71-9.63L87.71-9.63Q89.00-9.01 89.91-7.86L89.91-7.86L89.91-7.86Q90.83-6.71 90.83-4.88L90.83-4.88L90.83-4.88Q90.83-2.54 89.10-0.97L89.10-0.97L89.10-0.97Q87.36 0.58 84.01 0.58L84.01 0.58L84.01 0.58Q81.78 0.58 80.16-0.18L80.16-0.18L80.16-0.18Q78.55-0.94 77.71-2.18L77.71-2.18L77.71-2.18Q76.87-3.43 76.79-4.95L76.79-4.95L78.86-4.95ZM95.24 0L95.24-27.30L97.42-27.30L97.42 0L95.24 0ZM115.28 0L115.28-13.38L115.28-13.38Q115.28-15.76 113.90-16.83L113.90-16.83L113.90-16.83Q112.52-17.90 110.33-17.90L110.33-17.90L110.33-17.90Q109.00-17.90 107.64-17.53L107.64-17.53L107.64-17.53Q106.28-17.16 105.22-16.57L105.22-16.57L105.22 0L103.04 0L103.04-27.30L105.22-27.30L105.22-18.49L105.22-18.49Q106.20-19.15 107.56-19.52L107.56-19.52L107.56-19.52Q108.93-19.89 110.41-19.89L110.41-19.89L110.41-19.89Q112.44-19.89 114.11-19.15L114.11-19.15L114.11-19.15Q115.67-18.45 116.55-17.04L116.55-17.04L116.55-17.04Q117.43-15.64 117.43-13.49L117.43-13.49L117.43 0L115.28 0ZM122.81 0L122.81-27.34L130.14-27.34L130.14-27.34Q134.55-27.34 136.87-24.92L136.87-24.92L136.87-24.92Q139.19-22.50 139.19-18.49L139.19-18.49L139.19-7.80L139.19-7.80Q139.19 0 130.92 0L130.92 0L122.81 0ZM137.01-18.88L137.01-18.88Q137.01-21.10 136.05-22.56L136.05-22.56L136.05-22.56Q135.10-24.02 133.61-24.69L133.61-24.69L133.61-24.69Q132.13-25.35 130.53-25.35L130.53-25.35L125.00-25.35L125.00-1.95L130.30-1.95L130.30-1.95Q133.15-1.95 135.08-3.06L135.08-3.06L135.08-3.06Q137.01-4.17 137.01-7.41L137.01-7.41L137.01-18.88ZM156.66-1.36L156.66-1.36Q155.26-0.47 153.47 0L153.47 0L153.47 0Q151.67 0.47 149.88 0.47L149.88 0.47L149.88 0.47Q146.99 0.47 145.29-0.96L145.29-0.96L145.29-0.96Q143.60-2.38 143.60-5.23L143.60-5.23L143.60-13.22L143.60-13.22Q143.60-16.38 145.57-18.14L145.57-18.14L145.57-18.14Q147.54-19.89 150.77-19.89L150.77-19.89L150.77-19.89Q154.01-19.89 155.82-18.15L155.82-18.15L155.82-18.15Q157.64-16.42 157.64-13.34L157.64-13.34L157.64-8.27L145.78-7.61L145.78-5.23L145.78-5.23Q145.78-3.35 146.99-2.42L146.99-2.42L146.99-2.42Q148.20-1.48 150.15-1.48L150.15-1.48L150.15-1.48Q152.88-1.48 155.81-3.04L155.81-3.04L156.66-1.36ZM155.45-13.61L155.45-13.61Q155.45-16.03 153.93-17.02L153.93-17.02L153.93-17.02Q152.41-18.02 150.74-18.02L150.74-18.02L150.74-18.02Q148.59-18.02 147.19-16.85L147.19-16.85L147.19-16.85Q145.78-15.68 145.78-13.18L145.78-13.18L145.78-9.75L155.45-10.22L155.45-13.61ZM165.83 0L159.86-19.54L162.16-19.54L167.35-2.26L172.57-19.54L174.88-19.54L168.83 0L165.83 0Z" fill="#7ebfc5"></path></g></g><style>text {
  font-size: 64px;
  font-family: Arial Black;
  dominant-baseline: central;
  text-anchor: middle;
}</style></svg>