<svg width="172.17119140625px" height="62.032519531249996px" xmlns="http://www.w3.org/2000/svg" viewBox="163.914404296875 43.983740234375006 172.17119140625 62.032519531249996" style="background: rgba(0, 0, 0, 0);" preserveAspectRatio="xMidYMid"><defs><filter id="editing-hole" x="-100%" y="-100%" width="300%" height="300%"><feFlood flood-color="#000000" result="black"></feFlood><feMorphology operator="dilate" radius="2" in="SourceGraphic" result="erode"></feMorphology><feGaussianBlur in="erode" stdDeviation="4" result="blur"></feGaussianBlur><feOffset in="blur" dx="2" dy="2" result="offset"></feOffset><feComposite operator="atop" in="offset" in2="black" result="merge"></feComposite><feComposite operator="in" in="merge" in2="SourceGraphic" result="inner-shadow"></feComposite></filter></defs><g filter="url(#editing-hole)"><g transform="translate(193.15656518936157, 84.30999946594238)"><path d="M2.31-3.30L2.31-3.30Q2.47-2.13 3.48-1.55L3.48-1.55L3.48-1.55Q4.50-0.96 5.75-0.96L5.75-0.96L5.75-0.96Q6.92-0.96 7.88-1.50L7.88-1.50L7.88-1.50Q8.84-2.03 8.84-3.22L8.84-3.22L8.84-3.22Q8.84-4.00 8.39-4.51L8.39-4.51L8.39-4.51Q7.93-5.02 7.25-5.33L7.25-5.33L7.25-5.33Q6.58-5.64 5.43-6.01L5.43-6.01L5.43-6.01Q4.16-6.42 3.35-6.79L3.35-6.79L3.35-6.79Q2.55-7.15 1.95-7.81L1.95-7.81L1.95-7.81Q1.35-8.48 1.25-9.49L1.25-9.49L1.22-9.80L1.22-9.80Q1.22-10.66 1.70-11.48L1.70-11.48L1.70-11.48Q2.18-12.30 3.19-12.82L3.19-12.82L3.19-12.82Q4.19-13.34 5.69-13.34L5.69-13.34L5.69-13.34Q6.53-13.34 7.16-13.17L7.16-13.17L7.16-13.17Q7.80-13.00 8.16-12.82L8.16-12.82L8.16-12.82Q8.53-12.64 8.61-12.58L8.61-12.58L8.11-11.39L8.11-11.39Q8.03-11.44 7.74-11.60L7.74-11.60L7.74-11.60Q7.44-11.75 6.89-11.91L6.89-11.91L6.89-11.91Q6.34-12.06 5.69-12.06L5.69-12.06L5.69-12.06Q4.45-12.06 3.56-11.48L3.56-11.48L3.56-11.48Q2.68-10.89 2.68-9.85L2.68-9.85L2.68-9.85Q2.68-8.87 3.48-8.35L3.48-8.35L3.48-8.35Q4.29-7.83 5.95-7.31L5.95-7.31L5.95-7.31Q7.36-6.84 8.22-6.42L8.22-6.42L8.22-6.42Q9.07-6.01 9.69-5.24L9.69-5.24L9.69-5.24Q10.30-4.47 10.30-3.25L10.30-3.25L10.30-3.25Q10.30-1.69 9.14-0.65L9.14-0.65L9.14-0.65Q7.98 0.39 5.75 0.39L5.75 0.39L5.75 0.39Q4.26 0.39 3.19-0.12L3.19-0.12L3.19-0.12Q2.11-0.62 1.55-1.46L1.55-1.46L1.55-1.46Q0.99-2.29 0.94-3.30L0.94-3.30L2.31-3.30ZM20.83-0.91L20.83-0.91Q19.89-0.31 18.69 0L18.69 0L18.69 0Q17.50 0.31 16.30 0.31L16.30 0.31L16.30 0.31Q14.38 0.31 13.25-0.64L13.25-0.64L13.25-0.64Q12.12-1.59 12.12-3.48L12.12-3.48L12.12-8.81L12.12-8.81Q12.12-10.92 13.43-12.09L13.43-12.09L13.43-12.09Q14.74-13.26 16.90-13.26L16.90-13.26L16.90-13.26Q19.06-13.26 20.27-12.10L20.27-12.10L20.27-12.10Q21.48-10.95 21.48-8.89L21.48-8.89L21.48-5.51L13.57-5.07L13.57-3.48L13.57-3.48Q13.57-2.24 14.38-1.61L14.38-1.61L14.38-1.61Q15.18-0.99 16.48-0.99L16.48-0.99L16.48-0.99Q18.30-0.99 20.25-2.03L20.25-2.03L20.83-0.91ZM20.02-9.07L20.02-9.07Q20.02-10.69 19.01-11.35L19.01-11.35L19.01-11.35Q17.99-12.01 16.87-12.01L16.87-12.01L16.87-12.01Q15.44-12.01 14.51-11.23L14.51-11.23L14.51-11.23Q13.57-10.45 13.57-8.79L13.57-8.79L13.57-6.50L20.02-6.81L20.02-9.07ZM34.11-4.08L34.11-4.08Q34.11-2.76 33.57-1.85L33.57-1.85L33.57-1.85Q33.02-0.94 32.08-0.47L32.08-0.47L32.08-0.47Q31.25-0.05 30.41 0.13L30.41 0.13L30.41 0.13Q29.56 0.31 28.60 0.31L28.60 0.31L28.60 0.31Q27.64 0.31 25.95 0.13L25.95 0.13L24.52 0L24.52-18.20L25.97-18.20L25.97-12.32L25.97-12.32Q26.60-12.77 27.50-13.00L27.50-13.00L27.50-13.00Q28.39-13.23 29.35-13.23L29.35-13.23L29.35-13.23Q30.84-13.23 31.90-12.74L31.90-12.74L31.90-12.74Q34.11-11.73 34.11-9.00L34.11-9.00L34.11-4.08ZM32.68-8.92L32.68-8.92Q32.68-10.50 31.76-11.22L31.76-11.22L31.76-11.22Q30.84-11.93 29.38-11.93L29.38-11.93L29.38-11.93Q28.50-11.93 27.59-11.69L27.59-11.69L27.59-11.69Q26.68-11.44 25.97-11.05L25.97-11.05L25.97-1.25L25.97-1.25Q27.51-1.01 28.50-1.01L28.50-1.01L28.50-1.01Q32.68-1.01 32.68-4.06L32.68-4.06L32.68-8.92ZM45.94 0L45.94 0Q43.13 0.29 41.89 0.29L41.89 0.29L41.89 0.29Q39.16 0.29 37.54-0.73L37.54-0.73L37.54-0.73Q35.93-1.74 35.93-4.39L35.93-4.39L35.93-6.55L35.93-6.55Q35.93-9.13 37.73-10.01L37.73-10.01L37.73-10.01Q38.58-10.45 39.91-10.45L39.91-10.45L39.91-10.45Q41.13-10.45 42.38-10.05L42.38-10.05L42.38-10.05Q43.63-9.65 44.49-9.00L44.49-9.00L44.49-9.00Q44.49-10.43 43.65-11.27L43.65-11.27L43.65-11.27Q42.82-12.12 40.46-12.12L40.46-12.12L40.53-13.23L40.53-13.23Q43.03-13.23 44.21-12.44L44.21-12.44L44.21-12.44Q45.40-11.65 45.67-10.56L45.67-10.56L45.67-10.56Q45.94-9.46 45.94-7.75L45.94-7.75L45.94 0ZM44.49-7.88L44.49-7.88Q43.42-8.37 42.21-8.74L42.21-8.74L42.21-8.74Q41.00-9.10 39.99-9.10L39.99-9.10L39.99-9.10Q37.36-9.10 37.36-6.47L37.36-6.47L37.36-4.21L37.36-4.21Q37.36-2.52 38.53-1.76L38.53-1.76L38.53-1.76Q39.70-0.99 41.86-0.99L41.86-0.99L41.86-0.99Q42.98-0.99 44.49-1.20L44.49-1.20L44.49-7.88ZM49.19-3.30L49.19-3.30Q49.35-2.13 50.36-1.55L50.36-1.55L50.36-1.55Q51.38-0.96 52.62-0.96L52.62-0.96L52.62-0.96Q53.79-0.96 54.76-1.50L54.76-1.50L54.76-1.50Q55.72-2.03 55.72-3.22L55.72-3.22L55.72-3.22Q55.72-4.00 55.26-4.51L55.26-4.51L55.26-4.51Q54.81-5.02 54.13-5.33L54.13-5.33L54.13-5.33Q53.46-5.64 52.31-6.01L52.31-6.01L52.31-6.01Q51.04-6.42 50.23-6.79L50.23-6.79L50.23-6.79Q49.43-7.15 48.83-7.81L48.83-7.81L48.83-7.81Q48.23-8.48 48.13-9.49L48.13-9.49L48.10-9.80L48.10-9.80Q48.10-10.66 48.58-11.48L48.58-11.48L48.58-11.48Q49.06-12.30 50.06-12.82L50.06-12.82L50.06-12.82Q51.06-13.34 52.57-13.34L52.57-13.34L52.57-13.34Q53.40-13.34 54.04-13.17L54.04-13.17L54.04-13.17Q54.68-13.00 55.04-12.82L55.04-12.82L55.04-12.82Q55.41-12.64 55.48-12.58L55.48-12.58L54.99-11.39L54.99-11.39Q54.91-11.44 54.61-11.60L54.61-11.60L54.61-11.60Q54.31-11.75 53.77-11.91L53.77-11.91L53.77-11.91Q53.22-12.06 52.57-12.06L52.57-12.06L52.57-12.06Q51.32-12.06 50.44-11.48L50.44-11.48L50.44-11.48Q49.56-10.89 49.56-9.85L49.56-9.85L49.56-9.85Q49.56-8.87 50.36-8.35L50.36-8.35L50.36-8.35Q51.17-7.83 52.83-7.31L52.83-7.31L52.83-7.31Q54.24-6.84 55.09-6.42L55.09-6.42L55.09-6.42Q55.95-6.01 56.56-5.24L56.56-5.24L56.56-5.24Q57.17-4.47 57.17-3.25L57.17-3.25L57.17-3.25Q57.17-1.69 56.02-0.65L56.02-0.65L56.02-0.65Q54.86 0.39 52.62 0.39L52.62 0.39L52.62 0.39Q51.14 0.39 50.06-0.12L50.06-0.12L50.06-0.12Q48.98-0.62 48.42-1.46L48.42-1.46L48.42-1.46Q47.87-2.29 47.81-3.30L47.81-3.30L49.19-3.30ZM60.11 0L60.11-18.20L61.57-18.20L61.57 0L60.11 0ZM73.48 0L73.48-8.92L73.48-8.92Q73.48-10.50 72.55-11.22L72.55-11.22L72.55-11.22Q71.63-11.93 70.17-11.93L70.17-11.93L70.17-11.93Q69.29-11.93 68.38-11.69L68.38-11.69L68.38-11.69Q67.47-11.44 66.77-11.05L66.77-11.05L66.77 0L65.31 0L65.31-18.20L66.77-18.20L66.77-12.32L66.77-12.32Q67.42-12.77 68.33-13.01L68.33-13.01L68.33-13.01Q69.24-13.26 70.23-13.26L70.23-13.26L70.23-13.26Q71.58-13.26 72.70-12.77L72.70-12.77L72.70-12.77Q73.74-12.30 74.32-11.36L74.32-11.36L74.32-11.36Q74.91-10.43 74.91-9.00L74.91-9.00L74.91 0L73.48 0ZM78.49 0L78.49-18.23L83.38-18.23L83.38-18.23Q86.32-18.23 87.87-16.61L87.87-16.61L87.87-16.61Q89.41-15.00 89.41-12.32L89.41-12.32L89.41-5.20L89.41-5.20Q89.41 0 83.90 0L83.90 0L78.49 0ZM87.96-12.58L87.96-12.58Q87.96-14.07 87.32-15.04L87.32-15.04L87.32-15.04Q86.68-16.02 85.70-16.46L85.70-16.46L85.70-16.46Q84.71-16.90 83.64-16.90L83.64-16.90L79.95-16.90L79.95-1.30L83.49-1.30L83.49-1.30Q85.38-1.30 86.67-2.04L86.67-2.04L86.67-2.04Q87.96-2.78 87.96-4.94L87.96-4.94L87.96-12.58ZM101.06-0.91L101.06-0.91Q100.13-0.31 98.93 0L98.93 0L98.93 0Q97.73 0.31 96.54 0.31L96.54 0.31L96.54 0.31Q94.61 0.31 93.48-0.64L93.48-0.64L93.48-0.64Q92.35-1.59 92.35-3.48L92.35-3.48L92.35-8.81L92.35-8.81Q92.35-10.92 93.67-12.09L93.67-12.09L93.67-12.09Q94.98-13.26 97.14-13.26L97.14-13.26L97.14-13.26Q99.29-13.26 100.50-12.10L100.50-12.10L100.50-12.10Q101.71-10.95 101.71-8.89L101.71-8.89L101.71-5.51L93.81-5.07L93.81-3.48L93.81-3.48Q93.81-2.24 94.61-1.61L94.61-1.61L94.61-1.61Q95.42-0.99 96.72-0.99L96.72-0.99L96.72-0.99Q98.54-0.99 100.49-2.03L100.49-2.03L101.06-0.91ZM100.26-9.07L100.26-9.07Q100.26-10.69 99.24-11.35L99.24-11.35L99.24-11.35Q98.23-12.01 97.11-12.01L97.11-12.01L97.11-12.01Q95.68-12.01 94.74-11.23L94.74-11.23L94.74-11.23Q93.81-10.45 93.81-8.79L93.81-8.79L93.81-6.50L100.26-6.81L100.26-9.07ZM107.17 0L103.19-13.03L104.73-13.03L108.19-1.51L111.67-13.03L113.20-13.03L109.17 0L107.17 0Z" fill="#7ebfc5"></path></g></g><style>text {
  font-size: 64px;
  font-family: Arial Black;
  dominant-baseline: central;
  text-anchor: middle;
}</style></svg>