<svg width="626.3474609374999px" height="189.235009765625px" xmlns="http://www.w3.org/2000/svg" viewBox="-63.173730468749966 -19.617504882812497 626.3474609374999 189.235009765625" style="background: rgba(0, 0, 0, 0);" preserveAspectRatio="xMidYMid"><defs><filter id="editing-hole" x="-100%" y="-100%" width="300%" height="300%"><feFlood flood-color="#000000" result="black"></feFlood><feMorphology operator="dilate" radius="2" in="SourceGraphic" result="erode"></feMorphology><feGaussianBlur in="erode" stdDeviation="4" result="blur"></feGaussianBlur><feOffset in="blur" dx="2" dy="2" result="offset"></feOffset><feComposite operator="atop" in="offset" in2="black" result="merge"></feComposite><feComposite operator="in" in="merge" in2="SourceGraphic" result="inner-shadow"></feComposite></filter></defs><g filter="url(#editing-hole)"><g transform="translate(21.719991445541382, 112.22999954223633)"><path d="M9.26-13.21L9.26-13.21Q9.88-8.53 13.94-6.19L13.94-6.19L13.94-6.19Q17.99-3.85 22.98-3.85L22.98-3.85L22.98-3.85Q27.66-3.85 31.51-5.98L31.51-5.98L31.51-5.98Q35.36-8.11 35.36-12.90L35.36-12.90L35.36-12.90Q35.36-16.02 33.54-18.04L33.54-18.04L33.54-18.04Q31.72-20.07 29.02-21.32L29.02-21.32L29.02-21.32Q26.31-22.57 21.74-24.02L21.74-24.02L21.74-24.02Q16.64-25.69 13.42-27.14L13.42-27.14L13.42-27.14Q10.19-28.60 7.80-31.25L7.80-31.25L7.80-31.25Q5.41-33.90 4.99-37.96L4.99-37.96L4.89-39.21L4.89-39.21Q4.89-42.64 6.81-45.92L6.81-45.92L6.81-45.92Q8.74-49.19 12.74-51.27L12.74-51.27L12.74-51.27Q16.74-53.35 22.78-53.35L22.78-53.35L22.78-53.35Q26.10-53.35 28.65-52.68L28.65-52.68L28.65-52.68Q31.20-52.00 32.66-51.27L32.66-51.27L32.66-51.27Q34.11-50.54 34.42-50.34L34.42-50.34L32.45-45.55L32.45-45.55Q32.14-45.76 30.94-46.38L30.94-46.38L30.94-46.38Q29.74-47.01 27.56-47.63L27.56-47.63L27.56-47.63Q25.38-48.26 22.78-48.26L22.78-48.26L22.78-48.26Q17.78-48.26 14.25-45.92L14.25-45.92L14.25-45.92Q10.71-43.58 10.71-39.42L10.71-39.42L10.71-39.42Q10.71-35.46 13.94-33.38L13.94-33.38L13.94-33.38Q17.16-31.30 23.82-29.22L23.82-29.22L23.82-29.22Q29.43-27.35 32.86-25.69L32.86-25.69L32.86-25.69Q36.30-24.02 38.74-20.96L38.74-20.96L38.74-20.96Q41.18-17.89 41.18-13.00L41.18-13.00L41.18-13.00Q41.18-6.76 36.56-2.60L36.56-2.60L36.56-2.60Q31.93 1.56 22.98 1.56L22.98 1.56L22.98 1.56Q17.06 1.56 12.74-0.47L12.74-0.47L12.74-0.47Q8.42-2.50 6.19-5.82L6.19-5.82L6.19-5.82Q3.95-9.15 3.74-13.21L3.74-13.21L9.26-13.21ZM83.30-3.64L83.30-3.64Q79.56-1.25 74.78 0L74.78 0L74.78 0Q69.99 1.25 65.21 1.25L65.21 1.25L65.21 1.25Q57.51 1.25 52.99-2.55L52.99-2.55L52.99-2.55Q48.46-6.34 48.46-13.94L48.46-13.94L48.46-35.26L48.46-35.26Q48.46-43.68 53.72-48.36L53.72-48.36L53.72-48.36Q58.97-53.04 67.60-53.04L67.60-53.04L67.60-53.04Q76.23-53.04 81.07-48.41L81.07-48.41L81.07-48.41Q85.90-43.78 85.90-35.57L85.90-35.57L85.90-22.05L54.29-20.28L54.29-13.94L54.29-13.94Q54.29-8.94 57.51-6.45L57.51-6.45L57.51-6.45Q60.74-3.95 65.94-3.95L65.94-3.95L65.94-3.95Q73.22-3.95 81.02-8.11L81.02-8.11L83.30-3.64ZM80.08-36.30L80.08-36.30Q80.08-42.74 76.02-45.40L76.02-45.40L76.02-45.40Q71.97-48.05 67.50-48.05L67.50-48.05L67.50-48.05Q61.78-48.05 58.03-44.93L58.03-44.93L58.03-44.93Q54.29-41.81 54.29-35.15L54.29-35.15L54.29-26.00L80.08-27.25L80.08-36.30ZM136.45-16.33L136.45-16.33Q136.45-11.02 134.26-7.38L134.26-7.38L134.26-7.38Q132.08-3.74 128.34-1.87L128.34-1.87L128.34-1.87Q125.01-0.21 121.63 0.52L121.63 0.52L121.63 0.52Q118.25 1.25 114.40 1.25L114.40 1.25L114.40 1.25Q110.55 1.25 103.79 0.52L103.79 0.52L98.07 0L98.07-72.80L103.90-72.80L103.90-49.30L103.90-49.30Q106.39-51.06 109.98-52.00L109.98-52.00L109.98-52.00Q113.57-52.94 117.42-52.94L117.42-52.94L117.42-52.94Q123.34-52.94 127.61-50.96L127.61-50.96L127.61-50.96Q136.45-46.90 136.45-35.98L136.45-35.98L136.45-16.33ZM130.73-35.67L130.73-35.67Q130.73-42.02 127.04-44.88L127.04-44.88L127.04-44.88Q123.34-47.74 117.52-47.74L117.52-47.74L117.52-47.74Q113.98-47.74 110.34-46.75L110.34-46.75L110.34-46.75Q106.70-45.76 103.90-44.20L103.90-44.20L103.90-4.99L103.90-4.99Q110.03-4.06 113.98-4.06L113.98-4.06L113.98-4.06Q130.73-4.06 130.73-16.22L130.73-16.22L130.73-35.67ZM183.77 0L183.77 0Q172.54 1.14 167.54 1.14L167.54 1.14L167.54 1.14Q156.62 1.14 150.18-2.91L150.18-2.91L150.18-2.91Q143.73-6.97 143.73-17.58L143.73-17.58L143.73-26.21L143.73-26.21Q143.73-36.50 150.90-40.04L150.90-40.04L150.90-40.04Q154.34-41.81 159.64-41.81L159.64-41.81L159.64-41.81Q164.53-41.81 169.52-40.20L169.52-40.20L169.52-40.20Q174.51-38.58 177.94-35.98L177.94-35.98L177.94-35.98Q177.94-41.70 174.62-45.08L174.62-45.08L174.62-45.08Q171.29-48.46 161.82-48.46L161.82-48.46L162.14-52.94L162.14-52.94Q172.12-52.94 176.85-49.76L176.85-49.76L176.85-49.76Q181.58-46.59 182.68-42.22L182.68-42.22L182.68-42.22Q183.77-37.86 183.77-30.99L183.77-30.99L183.77 0ZM177.94-31.51L177.94-31.51Q173.68-33.49 168.84-34.94L168.84-34.94L168.84-34.94Q164.01-36.40 159.95-36.40L159.95-36.40L159.95-36.40Q149.45-36.40 149.45-25.90L149.45-25.90L149.45-16.85L149.45-16.85Q149.45-10.09 154.13-7.02L154.13-7.02L154.13-7.02Q158.81-3.95 167.44-3.95L167.44-3.95L167.44-3.95Q171.91-3.95 177.94-4.78L177.94-4.78L177.94-31.51ZM196.77-13.21L196.77-13.21Q197.39-8.53 201.45-6.19L201.45-6.19L201.45-6.19Q205.50-3.85 210.50-3.85L210.50-3.85L210.50-3.85Q215.18-3.85 219.02-5.98L219.02-5.98L219.02-5.98Q222.87-8.11 222.87-12.90L222.87-12.90L222.87-12.90Q222.87-16.02 221.05-18.04L221.05-18.04L221.05-18.04Q219.23-20.07 216.53-21.32L216.53-21.32L216.53-21.32Q213.82-22.57 209.25-24.02L209.25-24.02L209.25-24.02Q204.15-25.69 200.93-27.14L200.93-27.14L200.93-27.14Q197.70-28.60 195.31-31.25L195.31-31.25L195.31-31.25Q192.92-33.90 192.50-37.96L192.50-37.96L192.40-39.21L192.40-39.21Q192.40-42.64 194.32-45.92L194.32-45.92L194.32-45.92Q196.25-49.19 200.25-51.27L200.25-51.27L200.25-51.27Q204.26-53.35 210.29-53.35L210.29-53.35L210.29-53.35Q213.62-53.35 216.16-52.68L216.16-52.68L216.16-52.68Q218.71-52.00 220.17-51.27L220.17-51.27L220.17-51.27Q221.62-50.54 221.94-50.34L221.94-50.34L219.96-45.55L219.96-45.55Q219.65-45.76 218.45-46.38L218.45-46.38L218.45-46.38Q217.26-47.01 215.07-47.63L215.07-47.63L215.07-47.63Q212.89-48.26 210.29-48.26L210.29-48.26L210.29-48.26Q205.30-48.26 201.76-45.92L201.76-45.92L201.76-45.92Q198.22-43.58 198.22-39.42L198.22-39.42L198.22-39.42Q198.22-35.46 201.45-33.38L201.45-33.38L201.45-33.38Q204.67-31.30 211.33-29.22L211.33-29.22L211.33-29.22Q216.94-27.35 220.38-25.69L220.38-25.69L220.38-25.69Q223.81-24.02 226.25-20.96L226.25-20.96L226.25-20.96Q228.70-17.89 228.70-13.00L228.70-13.00L228.70-13.00Q228.70-6.76 224.07-2.60L224.07-2.60L224.07-2.60Q219.44 1.56 210.50 1.56L210.50 1.56L210.50 1.56Q204.57 1.56 200.25-0.47L200.25-0.47L200.25-0.47Q195.94-2.50 193.70-5.82L193.70-5.82L193.70-5.82Q191.46-9.15 191.26-13.21L191.26-13.21L196.77-13.21ZM240.45 0L240.45-72.80L246.27-72.80L246.27 0L240.45 0ZM293.90 0L293.90-35.67L293.90-35.67Q293.90-42.02 290.21-44.88L290.21-44.88L290.21-44.88Q286.52-47.74 280.70-47.74L280.70-47.74L280.70-47.74Q277.16-47.74 273.52-46.75L273.52-46.75L273.52-46.75Q269.88-45.76 267.07-44.20L267.07-44.20L267.07 0L261.25 0L261.25-72.80L267.07-72.80L267.07-49.30L267.07-49.30Q269.67-51.06 273.31-52.05L273.31-52.05L273.31-52.05Q276.95-53.04 280.90-53.04L280.90-53.04L280.90-53.04Q286.31-53.04 290.78-51.06L290.78-51.06L290.78-51.06Q294.94-49.19 297.28-45.45L297.28-45.45L297.28-45.45Q299.62-41.70 299.62-35.98L299.62-35.98L299.62 0L293.90 0ZM313.98 0L313.98-72.90L333.53-72.90L333.53-72.90Q345.28-72.90 351.47-66.46L351.47-66.46L351.47-66.46Q357.66-60.01 357.66-49.30L357.66-49.30L357.66-20.80L357.66-20.80Q357.66 0 335.61 0L335.61 0L313.98 0ZM351.83-50.34L351.83-50.34Q351.83-56.26 349.28-60.16L349.28-60.16L349.28-60.16Q346.74-64.06 342.78-65.83L342.78-65.83L342.78-65.83Q338.83-67.60 334.57-67.60L334.57-67.60L319.80-67.60L319.80-5.20L333.94-5.20L333.94-5.20Q341.54-5.20 346.68-8.16L346.68-8.16L346.68-8.16Q351.83-11.13 351.83-19.76L351.83-19.76L351.83-50.34ZM404.25-3.64L404.25-3.64Q400.50-1.25 395.72 0L395.72 0L395.72 0Q390.94 1.25 386.15 1.25L386.15 1.25L386.15 1.25Q378.46 1.25 373.93-2.55L373.93-2.55L373.93-2.55Q369.41-6.34 369.41-13.94L369.41-13.94L369.41-35.26L369.41-35.26Q369.41-43.68 374.66-48.36L374.66-48.36L374.66-48.36Q379.91-53.04 388.54-53.04L388.54-53.04L388.54-53.04Q397.18-53.04 402.01-48.41L402.01-48.41L402.01-48.41Q406.85-43.78 406.85-35.57L406.85-35.57L406.85-22.05L375.23-20.28L375.23-13.94L375.23-13.94Q375.23-8.94 378.46-6.45L378.46-6.45L378.46-6.45Q381.68-3.95 386.88-3.95L386.88-3.95L386.88-3.95Q394.16-3.95 401.96-8.11L401.96-8.11L404.25-3.64ZM401.02-36.30L401.02-36.30Q401.02-42.74 396.97-45.40L396.97-45.40L396.97-45.40Q392.91-48.05 388.44-48.05L388.44-48.05L388.44-48.05Q382.72-48.05 378.98-44.93L378.98-44.93L378.98-44.93Q375.23-41.81 375.23-35.15L375.23-35.15L375.23-26.00L401.02-27.25L401.02-36.30ZM428.69 0L412.78-52.10L418.91-52.10L432.74-6.03L446.68-52.10L452.82-52.10L436.70 0L428.69 0Z" fill="#7ebfc5"></path></g></g><style>text {
  font-size: 64px;
  font-family: Arial Black;
  dominant-baseline: central;
  text-anchor: middle;
}</style></svg>